<?xml version="1.0" encoding="UTF-8"?>
<svg viewBox="0 0 256 256" xmlns="http://www.w3.org/2000/svg">
 <defs>
  <linearGradient id="c" x1="823.33" x2="651.5" y1="642.31" y2="510.08" gradientUnits="userSpaceOnUse">
   <stop stop-color="#eb7331" offset="0"/>
   <stop stop-color="#ff7e00" offset=".47565"/>
   <stop stop-color="#ffbf80" offset="1"/>
  </linearGradient>
  <linearGradient id="b" x2="0" y1="13.857" y2="155.03" gradientUnits="userSpaceOnUse">
   <stop stop-color="#fff" offset="0"/>
   <stop stop-color="#fff" stop-opacity="0" offset="1"/>
  </linearGradient>
  <radialGradient id="a" cx="130.11" cy="236.91" r="109.6" gradientTransform="matrix(1 0 0 .10323 0 212.45)" gradientUnits="userSpaceOnUse">
   <stop stop-color="#2e3436" offset="0"/>
   <stop stop-color="#2e3436" stop-opacity="0" offset="1"/>
  </radialGradient>
 </defs>
 <g transform="translate(0 -796.36)">
  <path transform="translate(-1.4142 798.48)" d="m239.71 236.91a109.6 11.314 0 1 1 -219.2 0 109.6 11.314 0 1 1 219.2 0z" fill="url(#a)" fill-rule="evenodd" opacity=".46637"/>
  <path transform="rotate(45)" d="m674.99 478.63h138.28a14.367 14.367 0 0 1 14.367 14.367v138.28a14.367 14.367 0 0 1 -14.367 14.367h-138.28a14.367 14.367 0 0 1 -14.367 -14.367v-138.28a14.367 14.367 0 0 1 14.367 -14.367" fill="url(#c)" fill-rule="evenodd"/>
  <path transform="rotate(45)" d="m682.84 488.1h122.59a12.736 12.736 0 0 1 12.736 12.736v122.59a12.736 12.736 0 0 1 -12.736 12.736h-122.59a12.736 12.736 0 0 1 -12.736 -12.736v-122.59a12.736 12.736 0 0 1 12.736 -12.736" fill="none" stroke="#2e3436" stroke-width="3"/>
  <path d="m74.8 888.45h7.6281c2.21 3e-5 3.9739 0.37275 5.2917 1.1182s2.3229 1.7637 3.0152 3.0548 1.1448 2.8019 1.3577 4.5325 0.31929 3.5811 0.31931 5.5513c-2e-5 1.8102-0.13306 3.5672-0.39914 5.271s-0.75868 3.2213-1.4777 4.5526-1.7042 2.4029-2.9554 3.215-2.8486 1.2181-4.7921 1.2181h-7.9876zm3.5148 25.639h3.6745c1.5169 0 2.7214-0.35282 3.6136-1.0585s1.5711-1.6043 2.0371-2.6958 0.76535-2.3097 0.89821-3.6544 0.19925-2.6556 0.19926-3.9328c-1.7e-5 -1.3845-0.05324-2.7558-0.15965-4.1138s-0.37925-2.5762-0.81838-3.6544-1.1113-1.9567-2.0164-2.6355-2.1564-1.0182-3.7537-1.0182h-3.6745z" fill="#2e3436"/>
  <path d="m106.27 888.45h14.736v3.1151h-11.222v8.9455h10.583v3.1139h-10.583v10.224h11.701v3.1151h-15.215z" fill="#2e3436"/>
  <path d="m138.22 906.26h7.6671l-3.633-13.778h-0.0804zm1.7172-17.811h4.7128l7.667 28.514h-3.6745l-2.0365-7.8279h-9.1052l-2.1157 7.8279h-3.6745z" fill="#2e3436"/>
  <path d="m164.26 888.45h7.628c2.21 3e-5 3.9739 0.37275 5.2918 1.1182s2.3229 1.7637 3.0152 3.0548 1.1448 2.8019 1.3577 4.5325 0.31929 3.5811 0.31931 5.5513c-2e-5 1.8102-0.13307 3.5672-0.39914 5.271s-0.75868 3.2213-1.4777 4.5526-1.7042 2.4029-2.9554 3.215-2.8486 1.2181-4.7921 1.2181h-7.9876zm3.5148 25.639h3.6745c1.5169 0 2.7214-0.35282 3.6136-1.0585s1.5711-1.6043 2.0371-2.6958 0.76535-2.3097 0.89821-3.6544 0.19925-2.6556 0.19926-3.9328c-1e-5 -1.3845-0.0532-2.7558-0.15965-4.1138s-0.37925-2.5762-0.81838-3.6544-1.1113-1.9567-2.0164-2.6355-2.1564-1.0182-3.7537-1.0182h-3.6745z" fill="#2e3436"/>
  <path d="m89.319 938.37h14.736v3.1151h-11.222v8.9455h10.583v3.1139h-10.583v10.224h11.701v3.1151h-15.215z" fill="#2e3436"/>
  <path d="m117.4 938.37h4.552l9.4245 23.801h0.0804v-23.801h3.5136v28.514h-4.8311l-9.1454-23.083h-0.0804v23.083h-3.5136z" fill="#2e3436"/>
  <path d="m149.58 938.37h7.6281c2.21 3e-5 3.9739 0.37276 5.2917 1.1182s2.3229 1.7637 3.0152 3.0548 1.1448 2.8019 1.3577 4.5325 0.31929 3.5811 0.31931 5.5513c-2e-5 1.8102-0.13307 3.5672-0.39914 5.271s-0.75868 3.2213-1.4777 4.5526-1.7042 2.4029-2.9554 3.215-2.8486 1.2181-4.7921 1.2181h-7.9876zm3.5148 25.639h3.6745c1.5169 0 2.7214-0.35282 3.6136-1.0585s1.5711-1.6043 2.0371-2.6958 0.76535-2.3097 0.89821-3.6544 0.19925-2.6556 0.19927-3.9328c-2e-5 -1.3845-0.0532-2.7558-0.15966-4.1138s-0.37924-2.5762-0.81838-3.6544-1.1113-1.9566-2.0164-2.6355-2.1564-1.0182-3.7537-1.0182h-3.6745z" fill="#2e3436"/>
  <path transform="translate(0 796.36)" d="m128.69 15.156c-3.6724 0-7.3423 1.4048-10.156 4.2188l-97.781 97.781c-3.0617 3.0617-4.457 7.1366-4.1875 11.125 45.643-16.397 75.813-25.835 119.44 0.71875 28.529 17.366 73.964 5.8837 104.38-5.3438-0.62597-2.382-1.8759-4.6259-3.75-6.5l-97.781-97.781c-2.814-2.814-6.4838-4.2188-10.156-4.2188z" fill="url(#b)" fill-rule="evenodd" opacity=".3991"/>
 </g>
</svg>
